<svg id="Layer_1" data-name="Layer 1" xmlns="http://www.w3.org/2000/svg" viewBox="0 0 1920 775.58"><defs><style>.cls-1{fill:#00b3e8;}.cls-2{fill:#a7c738;}.cls-3{fill:#6c66a5;}.cls-4{fill:#f8dd01;}.cls-5{fill:#7ac138;}.cls-6{fill:#f47745;}.cls-7{fill:#e15530;}.cls-8{fill:#959596;}</style></defs><g id="ePac_Logo_Dark_" data-name="ePac Logo [Dark]"><path class="cls-1" d="M337.68,304.37A135.45,135.45,0,0,1,85.61,247H441.13s.28-7.33.28-11c0-121.89-98.81-220.7-220.7-220.7S0,114.11,0,236,98.81,456.71,220.71,456.71c98,0,181.07-63.92,209.86-152.34Zm-117-204A135.68,135.68,0,0,1,350,194.85H91.45A135.68,135.68,0,0,1,220.71,100.35Z"/><path class="cls-1" d="M1318.32,33.06v34.6A219.76,219.76,0,0,0,1175.67,15.3C1053.77,15.3,955,114.11,955,236s98.81,220.71,220.71,220.71a219.76,219.76,0,0,0,142.65-52.36v37.83h94.74V33.06Zm-142.65,338.6A135.66,135.66,0,1,1,1311.32,236,135.66,135.66,0,0,1,1175.67,371.66Z"/><path class="cls-1" d="M1773.63,303.13a135.67,135.67,0,1,1,5.56-123.35h90.11c-24.87-94.65-111-164.48-213.46-164.48-121.89,0-220.71,98.81-220.71,220.7S1534,456.71,1655.84,456.71c98.48,0,181.87-64.52,210.28-153.58Z"/><rect class="cls-1" x="535.04" y="661.65" width="31.36" height="31.36"/><rect class="cls-1" x="473.36" y="690.92" width="30.31" height="30.31"/><rect class="cls-1" x="510.98" y="689.87" width="20.91" height="20.91"/><rect class="cls-1" x="503.69" y="721.23" width="19.86" height="19.86"/><rect class="cls-1" x="479.62" y="757.81" width="17.77" height="17.77"/><path class="cls-2" d="M655.37,111.63a135.62,135.62,0,0,1,118.69,5.06c16.12-5.84,35.33-12.27,49.45-15.3,13.76-3,36-5,55.81-6.29A220.22,220.22,0,0,0,709.46,15.3l-1.44,0c-11.89,15.81-26.26,36.14-34,51.57C668.35,78.28,661.55,95.2,655.37,111.63Z"/><path class="cls-3" d="M473.35,683.6h31.36v-22H535V630.29h31.36V476.12c-30,17.68-71.34,41.41-93,53.83Z"/><path class="cls-4" d="M655.37,111.63c6.18-16.43,13-33.35,18.67-44.73,7.72-15.43,22.09-35.76,34-51.57A219.74,219.74,0,0,0,566.38,68V0h-93V67L577.53,204.88A135.84,135.84,0,0,1,655.37,111.63Z"/><path class="cls-5" d="M774.06,116.69A135.84,135.84,0,0,1,842,207.11a393,393,0,0,1,45.31,32.25,462.91,462.91,0,0,1,39.08,37.4,220.37,220.37,0,0,0-47-181.66c-19.76,1.32-42.05,3.34-55.81,6.29C809.39,104.42,790.18,110.85,774.06,116.69Z"/><path class="cls-1" d="M926.35,276.76a462.91,462.91,0,0,0-39.08-37.4A393,393,0,0,0,842,207.11a134.72,134.72,0,0,1-23.82,109.83c1.17,18.7,2.24,41,2.24,60.4,0,16.21-2.25,35.1-5,52.34A220.93,220.93,0,0,0,926.35,276.76Z"/><path class="cls-3" d="M818.14,316.94a135.22,135.22,0,0,1-100.49,54.3c-5.77,6.07-11,11.37-14.34,14.46-9.2,8.44-48.18,34.28-78.63,54.07a220.77,220.77,0,0,0,190.66-10.09c2.79-17.24,5-36.13,5-52.34C820.38,358,819.31,335.64,818.14,316.94Z"/><path class="cls-6" d="M608.28,326.14a134.36,134.36,0,0,1-30.75-121.26L473.35,67V285.15c17.57,8.29,41.71,19,63.76,26.34S587.3,323.47,608.28,326.14Z"/><path class="cls-7" d="M717.65,371.24c-2.72.17-5.42.42-8.19.42a135.16,135.16,0,0,1-101.18-45.52c-21-2.67-49-7.26-71.17-14.65s-46.19-18.05-63.76-26.34V530c21.69-12.42,63-36.15,93-53.83V404a221.18,221.18,0,0,0,58.3,35.79c30.45-19.79,69.43-45.63,78.63-54.07C706.68,382.61,711.88,377.31,717.65,371.24Z"/><path class="cls-8" d="M659.59,575.4h-11.8V565.22h11.8V554.78c0-11.39,6.78-17.36,19.4-17.36a28.21,28.21,0,0,1,7.45,1.09v10a21.51,21.51,0,0,0-6.51-.94c-5.56,0-8.81,1.76-8.81,7.86v9.76h13.56V575.4H671.12v60H659.59Z"/><path class="cls-8" d="M702.73,538.51h11.52v96.84H702.73Z"/><path class="cls-8" d="M799,613.1c-3.12,15.46-14.24,23.87-30,23.87-22.38,0-33-15.46-33.64-36.89,0-21,13.83-36.48,33-36.48,24.82,0,32.41,23.19,31.73,40.14H747.63c-.41,12.21,6.51,23.06,21.83,23.06,9.5,0,16.14-4.61,18.18-13.7Zm-11.12-19.53c-.55-11-8.82-19.8-20.21-19.8-12.07,0-19.26,9.09-20.07,19.8Z"/><path class="cls-8" d="M838,598.45l-24.42-33.23h14.79l16.82,24.55,17.49-24.55h13.84l-24.15,32.29,27.13,37.84H864.69l-19.53-29-19.54,29h-14Z"/><path class="cls-8" d="M908.65,552.61H897.12v-14.1h11.53Zm-11.53,12.61h11.53v70.13H897.12Z"/><path class="cls-8" d="M934,538.51h11.53v36.21h.27c3.8-7.73,12.75-11.12,22.38-11.12,21.56,0,32.28,17.09,32.28,36.89S989.89,637,968.46,637c-7.19,0-17.5-2.71-22.65-11h-.27v9.37H934Zm32.55,35.26c-15.46,0-21.42,13.29-21.42,26.45,0,13.83,6.23,26.58,22.1,26.58s21-13.43,21-27.12C988.26,586.52,981.48,573.77,966.56,573.77Z"/><path class="cls-8" d="M1021.77,538.51h11.53v96.84h-11.53Z"/><path class="cls-8" d="M1118.07,613.1c-3.11,15.46-14.24,23.87-30,23.87-22.37,0-33-15.46-33.63-36.89,0-21,13.83-36.48,33-36.48,24.81,0,32.41,23.19,31.73,40.14h-52.49c-.4,12.21,6.51,23.06,21.84,23.06,9.49,0,16.14-4.61,18.17-13.7ZM1107,593.57c-.55-11-8.82-19.8-20.22-19.8-12.07,0-19.25,9.09-20.07,19.8Z"/><path class="cls-8" d="M1183.34,565.22h11.52v9.5h.27c3.8-7.73,12.75-11.12,22.39-11.12,21.56,0,32.27,17.09,32.27,36.89s-10.57,36.48-32,36.48c-7.18,0-17.49-2.71-22.65-11h-.27V662.2h-11.52Zm32.55,8.55c-15.47,0-21.44,13.29-21.44,26.45,0,13.83,6.25,26.58,22.11,26.58s21-13.43,21-27.12C1237.59,586.52,1230.8,573.77,1215.89,573.77Z"/><path class="cls-8" d="M1332.54,635.07a15.54,15.54,0,0,1-8.27,1.9c-6,0-9.77-3.25-9.77-10.85-6.37,7.46-14.91,10.85-24.68,10.85-12.75,0-23.19-5.69-23.19-19.67,0-15.86,11.8-19.25,23.73-21.56,12.75-2.44,23.6-1.63,23.6-10.31,0-10-8.27-11.66-15.6-11.66-9.76,0-16.95,3-17.5,13.29h-11.52c.67-17.36,14.1-23.46,29.7-23.46,12.61,0,26.31,2.85,26.31,19.26v36.07c0,5.43,0,7.87,3.67,7.87a9.7,9.7,0,0,0,3.52-.68Zm-18.72-35.93c-4.47,3.25-13.15,3.38-20.88,4.74s-14.11,4.07-14.11,12.62c0,7.59,6.51,10.3,13.57,10.3,15.19,0,21.42-9.5,21.42-15.87Z"/><path class="cls-8" d="M1397.92,587.74c-1.76-8.82-7.86-14-17.36-14-16.68,0-21.83,13.15-21.83,27.4,0,12.88,5.83,25.63,20.48,25.63,11.12,0,17.76-6.51,19.25-17.09h11.81C1407.69,626.8,1397,637,1379.34,637c-21.43,0-32.82-14.92-32.82-35.8s10.85-37.57,33.09-37.57c15.88,0,28.62,7.46,30.25,24.14Z"/><path class="cls-8" d="M1430.89,538.51h11.53v57.37l32-30.66h15.46l-27.8,25.5,29.84,44.63h-14.65l-24-36.62-10.85,10v26.59h-11.53Z"/><path class="cls-8" d="M1569.8,635.07a15.55,15.55,0,0,1-8.28,1.9c-6,0-9.76-3.25-9.76-10.85-6.38,7.46-14.92,10.85-24.68,10.85-12.76,0-23.2-5.69-23.2-19.67,0-15.86,11.8-19.25,23.74-21.56,12.74-2.44,23.59-1.63,23.59-10.31,0-10-8.27-11.66-15.59-11.66-9.77,0-17,3-17.5,13.29h-11.53c.68-17.36,14.11-23.46,29.71-23.46,12.61,0,26.31,2.85,26.31,19.26v36.07c0,5.43,0,7.87,3.66,7.87a9.75,9.75,0,0,0,3.53-.68Zm-18.72-35.93c-4.47,3.25-13.15,3.38-20.89,4.74s-14.1,4.07-14.1,12.62c0,7.59,6.51,10.3,13.56,10.3,15.19,0,21.43-9.5,21.43-15.87Z"/><path class="cls-8" d="M1648.06,629.38c0,22.78-10.44,34.45-32.55,34.45-13.15,0-28.34-5.29-29-20.62H1598c.54,8.41,10.57,11.39,18.17,11.39,15.06,0,21-10.85,21-26.58v-4.61h-.27c-3.79,8.54-13,12.75-21.84,12.75-20.88,0-31.32-16.41-31.32-35.54,0-16.54,8.13-37,32.41-37,8.82,0,16.68,3.93,20.89,11.67h.13v-10h10.85Zm-11.39-30.52c0-12.34-5.42-25.09-19.94-25.09-14.78,0-20.75,12.07-20.75,25.5,0,12.61,4.61,26.71,19.8,26.71S1636.67,612,1636.67,598.86Z"/><path class="cls-8" d="M1684.7,552.61h-11.53v-14.1h11.53Zm-11.53,12.61h11.53v70.13h-11.53Z"/><path class="cls-8" d="M1709.66,565.22h10.85v11.13h.27c4.88-8.68,12.75-12.75,22.79-12.75,18.44,0,24.14,10.58,24.14,25.63v46.12h-11.53V587.88c0-8.55-5.42-14.11-14.24-14.11-14,0-20.76,9.36-20.76,22v39.61h-11.52Z"/><path class="cls-8" d="M1852.63,629.38c0,22.78-10.44,34.45-32.55,34.45-13.15,0-28.34-5.29-29-20.62h11.54c.54,8.41,10.57,11.39,18.16,11.39,15.06,0,21-10.85,21-26.58v-4.61h-.27c-3.8,8.54-13,12.75-21.84,12.75-20.88,0-31.33-16.41-31.33-35.54,0-16.54,8.14-37,32.41-37,8.82,0,16.69,3.93,20.9,11.67h.13v-10h10.85Zm-11.39-30.52c0-12.34-5.43-25.09-19.94-25.09-14.78,0-20.75,12.07-20.75,25.5,0,12.61,4.61,26.71,19.8,26.71S1841.24,612,1841.24,598.86Z"/><path class="cls-8" d="M1918.64,639.88a17.25,17.25,0,1,0-22.6,22.61,17.38,17.38,0,0,0,13.43,0,17.3,17.3,0,0,0,9.17-9.18,17.26,17.26,0,0,0,0-13.43Zm-1.78,6.71a14.11,14.11,0,1,1-14.11-14.1A14.12,14.12,0,0,1,1916.86,646.59Z"/><path class="cls-8" d="M1909.5,649.58a7.75,7.75,0,0,0-1.54-2.39,5.52,5.52,0,0,0,2.41-4.79,5.38,5.38,0,0,0-2.32-4.57c-2.36-1.72-6.06-2-11-1.06l-.72.14v20h4.21v-8.15h2.25c2.5,0,3.55,4,4,7.38l.09.77h4.24l-.14-1A28.14,28.14,0,0,0,1909.5,649.58Zm-3.26-7a2,2,0,0,1-.75,1.78,4.76,4.76,0,0,1-2.79.65h-2.14v-4.78c.49,0,1.07-.05,1.7-.05C1905.83,640.16,1906.24,641.53,1906.24,642.56Z"/></g></svg>